<svg xmlns="http://www.w3.org/2000/svg" version="1.1" viewBox="0 0 64 64">
<g id="logo">
    <rect id="background" x="0" y="0" width="64" height="64" fill="#ef5350" />
    <rect id="col_top_shadow" x="11" y="26" width="14" height="1" fill="#b71c1c" />
    <rect id="col_top" x="10" y="14" width="16" height="12" fill="#424242" />
    <rect id="col_btm_shadow" x="11" y="47" width="14" height="1" fill="#b71c1c" />
    <rect id="col_btm" x="10" y="34" width="16" height="13" fill="#424242" />
    <rect id="sem_top_shadow" x="39" y="26" width="14" height="1" fill="#b71c1c" />
    <rect id="sem_top" x="38" y="14" width="16" height="12" fill="#424242" />
    <polygon id="sem_btm_shadow" points="39,46 39,47 43,47 43,52 39,52 39,55 45,55 45,51 49,51 49,47 53,47 53,46" fill="#b71c1c" />
    <polygon id="sem_btm" points="38,34 38,46 42,46 42,51 38,51 38,54 46,54 46,50 50,50 50,46 54,46 54,34" fill="#424242" />
</g>
</svg>
